<svg width="110" height="34" viewBox="0 0 1097 243" fill="none" xmlns="http://www.w3.org/2000/svg"><path d="M112.953 90.9296C115.625 75.6602 120.105 60.8551 123.82 45.8911C124.997 41.1512 127.141 39.2297 132.091 39.4588C139.548 39.8087 147.03 39.5733 154.499 39.5733C159.073 39.5733 160.823 41.692 159.589 46.1901C151.254 76.7587 142.945 107.336 134.661 137.921C133.663 141.631 131.595 142.77 127.968 142.706C118.495 142.553 109.015 142.47 99.548 142.738C95.2216 142.865 93.4974 141.007 92.3968 137.088C87.1733 118.497 82.1408 99.8814 80.3084 80.4637C78.2025 99.805 73.3863 118.44 68.1374 137.005C66.9222 141.319 64.9563 142.884 60.5027 142.731C51.0292 142.458 41.5494 142.547 32.076 142.687C28.6022 142.744 26.7698 141.453 25.8537 138.049C17.6039 107.463 9.29053 76.8881 0.913524 46.3237C-0.301671 41.8701 1.11075 39.6051 5.78067 39.586C13.9817 39.586 22.1826 39.656 30.3772 39.5351C34.0483 39.4779 35.4098 41.4438 36.2369 44.6568C40.1497 59.9962 44.5461 75.1957 47.3645 90.9233C50.094 76.0292 54.3631 61.5995 57.9132 47.0235C59.2493 41.5265 61.5206 39.0452 67.5521 39.4397C75.9204 39.9773 84.3147 39.9773 92.6831 39.4397C98.8799 39.0516 101.272 41.5138 102.596 47.3226C105.923 61.8349 110.256 76.1373 112.953 90.9296Z" fill="#C70E13"></path><path d="M741.833 45.4457C741.833 35.1133 741.788 24.641 741.833 14.1623C741.909 0.527936 739.835 0.0953022 755.83 0.267084C760.748 0.317982 765.66 0.349794 770.578 0.267084C775.254 0.197099 777.519 2.0358 777.506 7.06836C777.404 50.2131 777.404 93.3536 777.506 136.49C777.506 140.943 775.693 142.757 771.303 142.68C763.477 142.547 755.645 142.68 747.82 142.636C745.402 142.636 742.73 142.598 742.138 139.62C741.502 136.229 740.115 137.005 738.13 138.348C719.406 151.072 687.321 146.994 673.235 117.066C661.745 92.6919 668.527 61.6567 688.263 46.5718C703.201 35.1197 722.326 34.2798 738.346 44.2686C739.161 44.8349 739.88 45.8592 741.833 45.4457ZM723.287 71.461C712.128 71.3719 704.346 79.2485 704.2 90.7896C704.047 102.668 711.835 111.206 722.899 111.302C733.715 111.391 741.566 103.132 741.795 91.4958C742.011 80.2155 734.007 71.5565 723.287 71.461Z" fill="#C70E13"></path><path d="M178.924 71.4991C178.924 50.5545 178.924 29.6056 178.924 8.65248C178.924 1.36767 179.91 0.381512 187.061 0.31789C194.212 0.254267 201.274 0.394237 208.375 0.31789C213.235 0.241542 215.29 2.4747 215.246 7.3164C215.138 18.4313 215.329 29.5462 215.176 40.6548C215.112 45.3628 216.188 45.9482 220.31 43.4542C247.414 27.0776 279.244 44.3449 279.836 75.8318C280.205 95.8666 279.836 115.914 279.988 135.949C280.027 140.823 278.22 142.948 273.251 142.801C265.788 142.591 258.306 142.572 250.843 142.801C245.607 142.967 243.66 140.6 243.685 135.612C243.762 119.218 243.762 102.823 243.685 86.425C243.634 73.9168 240.192 70.7484 227.945 71.62C219.852 72.199 215.513 76.7734 215.367 85.8206C215.125 101.3 215.252 116.786 215.227 132.265C215.227 142.509 214.985 142.738 204.875 142.744C198.863 142.744 192.851 142.744 186.838 142.744C179.643 142.706 178.943 142.05 178.93 134.957C178.905 113.766 178.902 92.6134 178.924 71.4991Z" fill="#C70E13"></path><path d="M374.488 46.4128C374.265 40.324 377.745 39.4779 382.072 39.5288C389.535 39.6178 397.004 39.6115 404.473 39.5288C408.768 39.4906 410.836 41.4374 410.836 45.7956C410.785 76.2158 410.759 106.632 410.759 137.043C410.759 141.262 408.952 142.801 404.779 142.693C396.768 142.477 388.752 142.636 380.736 142.617C378.916 142.617 376.365 142.922 375.773 141.147C373.737 135.02 370.861 138.602 368.062 140.136C350.133 150.061 325.835 144.513 312.621 127.481C297.86 108.445 296.715 78.0905 310.324 58.1321C325.346 36.1631 353.174 30.8188 374.488 46.4128ZM374.577 91.1523C374.602 79.2612 367.273 71.4992 356.044 71.4992C344.661 71.4547 337.637 78.9176 337.593 91.0887C337.555 103.393 344.929 111.448 356.171 111.359C366.885 111.251 374.602 102.814 374.602 91.1523H374.577Z" fill="#C70E13"></path><path d="M608.48 46.2727C608.117 39.9613 612.023 39.4905 616.413 39.535C623.698 39.605 630.983 39.6305 638.268 39.535C642.893 39.4778 644.859 41.6664 644.846 46.1964C644.77 76.4299 644.738 106.663 644.751 136.897C644.751 140.969 643.256 142.833 638.93 142.712C630.919 142.483 622.903 142.655 614.886 142.642C612.889 142.642 610.127 142.954 609.529 140.873C608.079 135.784 605.833 137.902 603.116 139.486C580.384 152.726 550.946 141.853 539.71 115.946C531.439 96.8592 533.258 66.5366 551.27 49.9692C566.877 35.6095 588.216 33.1664 605.922 44.8221C606.501 45.1975 607.124 45.5029 608.48 46.2727ZM571.578 91.0886C571.547 103.381 578.959 111.448 590.188 111.327C600.909 111.219 608.569 102.789 608.556 91.1141C608.556 79.2357 601.227 71.4928 589.991 71.4673C578.609 71.4355 571.591 78.9048 571.559 91.0886H571.578Z" fill="#C70E13"></path><path d="M1000.98 46.419C1000.73 40.3112 1004.21 39.4777 1008.55 39.5286C1016.02 39.624 1023.48 39.6113 1030.95 39.5286C1035.26 39.5286 1037.31 41.5009 1037.31 45.8209C1037.26 76.2369 1037.23 106.653 1037.22 137.069C1037.22 140.803 1035.95 142.795 1031.77 142.68C1023.4 142.483 1015.02 142.623 1006.64 142.617C1004.09 142.617 1001.72 142.171 1001.17 139.238C1000.64 136.458 999.461 137.33 997.781 138.157C965.378 154.501 932.409 136.884 928.044 100.511C926.136 84.6054 928.172 69.1959 938.396 55.8988C953.926 35.7303 980.533 31.4612 1000.98 46.419ZM1001.03 91.0567C1001.03 79.1974 993.658 71.48 982.41 71.4609C971.06 71.4609 964.068 78.9493 964.048 91.1458C964.029 103.342 971.499 111.505 982.715 111.327C993.449 111.168 1001.06 102.751 1001.03 91.0567Z" fill="#C70E13"></path><path d="M872.572 100.04C862.392 100.04 852.212 100.04 841.988 100.04C836.421 100.04 835.957 100.893 838.311 106.085C841.435 112.949 847.173 116.264 854.299 116.684C860.738 117.066 866.629 115.106 870.148 109.049C871.382 106.912 872.922 105.919 875.39 105.938C884.297 106.008 893.205 105.976 902.15 105.938C906.775 105.938 907.876 108.165 906.406 112.3C900.445 129.307 888.032 138.933 870.987 143.107C846.505 149.106 822.704 141.421 809.42 122.913C788.042 93.1182 801.435 44.6567 845.049 38.2308C872.158 34.2353 894.394 45.5856 904.733 68.2417C908.5 76.5126 909.823 85.2544 909.575 94.327C909.473 98.4052 907.984 100.193 903.683 100.104C893.332 99.9004 882.949 100.04 872.572 100.04ZM854.458 76.6271C858.454 76.6271 862.449 76.5572 866.445 76.6271C869.9 76.7035 870.758 75.6028 868.85 72.4917C863.276 63.419 845.475 63.5145 840.105 72.6507C838.368 75.6155 839.469 76.5953 842.472 76.589L854.458 76.6271Z" fill="#C70E13"></path><path d="M446.712 92.7939C446.712 88.0603 446.617 83.3204 446.712 78.5869C446.801 75.2658 445.701 73.6688 442.081 73.4334C429.356 72.6254 429.356 72.5109 429.356 59.8436C429.356 55.2882 429.445 50.7392 429.356 46.1838C429.267 41.6284 431.379 39.6879 435.966 39.5098C446.706 39.128 446.7 39.0071 446.725 28.0576C446.725 20.0666 446.725 20.073 454.913 18.3679C462.039 16.8728 469.19 15.4731 476.271 13.8061C480.954 12.6991 482.818 14.7732 482.92 19.0741C483.041 24.1639 483.092 29.2538 482.971 34.3436C482.882 38.0719 484.453 39.5925 488.182 39.5288C495.46 39.4016 502.751 39.5861 510.036 39.4907C514.375 39.4398 516.347 41.2657 516.246 45.7257C516.08 52.8196 516.061 59.9327 516.246 67.033C516.367 71.4866 514.337 73.3953 510.093 73.3953C502.987 73.3953 495.88 73.5607 488.78 73.3953C484.6 73.2998 482.831 74.8713 482.945 79.1213C483.143 86.3998 482.888 93.6909 483.054 100.976C483.238 109.209 486.451 112.046 494.735 111.518C499.863 111.194 504.736 109.565 509.603 108.114C513.682 106.905 515.864 108.114 516.71 112.243C518.04 118.663 519.401 125.07 520.877 131.451C521.393 133.678 521.126 135.434 519.058 136.611C503.317 145.518 476.004 150.417 458.616 134.301C449.963 126.272 447.164 115.991 446.744 104.749C446.585 100.747 446.744 96.7385 446.744 92.7302L446.712 92.7939Z" fill="#C70E13"></path><path d="M1096.49 71.3147C1096.49 91.708 1096.49 112.097 1096.49 132.482C1096.49 142.661 1096.49 142.661 1086.05 142.661C1080.41 142.661 1074.76 142.661 1069.12 142.661C1060.91 142.661 1060.21 141.949 1060.21 133.5C1060.21 101.646 1060.21 69.7878 1060.21 37.9255C1060.21 28.0958 1060.21 18.2597 1060.21 8.42994C1060.21 1.47597 1061.3 0.36893 1068.02 0.298945C1074.93 0.231081 1081.85 0.231081 1088.77 0.298945C1095.32 0.36893 1096.45 1.45688 1096.46 7.93368C1096.52 29.0819 1096.49 50.1983 1096.49 71.3147Z" fill="#C70E13"></path><path d="M839.049 204.706C843.839 196.435 847.892 187.815 850.501 178.29C853.256 180.383 853.306 183.017 853.548 185.181C854.261 191.657 858.002 195.36 863.321 198.611C901.634 221.872 941.341 222.788 982.206 206.437C989.779 203.311 997.126 199.663 1004.19 195.519C1008.69 192.974 1011.4 189.882 1011.53 184.506C1011.57 182.68 1011.4 180.492 1013.56 178.004L1023.16 204.509C1021.09 205.909 1019.76 204.846 1018.79 203.994C1014.44 200.176 1011.48 201.964 1007.85 205.54C991.514 221.617 972.968 234.297 950.357 239.756C920.785 246.895 894.579 238.706 870.701 221.153C864.39 216.515 858.142 211.648 853.275 205.495C850.17 201.576 847.549 200.406 843.521 203.822C842.599 204.611 841.301 204.955 840.181 205.502L839.049 204.706Z" fill="#C70E13"></path></svg>

